<svg xmlns="http://www.w3.org/2000/svg" version="1.1" xmlns:xlink="http://www.w3.org/1999/xlink" xmlns:svgjs="http://svgjs.dev/svgjs" width="1000" height="1000" viewBox="0 0 1000 1000"><rect width="1000" height="1000" fill="#000000"></rect><g transform="matrix(0.7,0,0,0.7,149.57575757575756,282.1265587044535)"><svg viewBox="0 0 396 247" data-background-color="#000000" preserveAspectRatio="xMidYMid meet" height="623" width="1000" xmlns="http://www.w3.org/2000/svg" xmlns:xlink="http://www.w3.org/1999/xlink"><g id="tight-bounds" transform="matrix(1,0,0,1,0.2400000000000091,-0.09999999999999432)"><svg viewBox="0 0 395.52 247.2" height="247.2" width="395.52"><g><svg></svg></g><g><svg viewBox="0 0 395.52 247.2" height="247.2" width="395.52"><g transform="matrix(1,0,0,1,39.55199999999999,111.25607282184654)"><svg viewBox="0 0 316.416 24.687854356306893" height="24.687854356306893" width="316.416"><g><svg viewBox="0 0 316.416 24.687854356306893" height="24.687854356306893" width="316.416"><g><svg viewBox="0 0 316.416 24.687854356306893" height="24.687854356306893" width="316.416"><g id="textblocktransform"><svg viewBox="0 0 316.416 24.687854356306893" height="24.687854356306893" width="316.416" id="textblock"><g><svg viewBox="0 0 316.416 24.687854356306893" height="24.687854356306893" width="316.416"><g transform="matrix(1,0,0,1,0,0)"><svg width="316.416" viewBox="4.699999809265137 -35.5 464.6300048828125 36" height="24.687854356306893" data-palette-color="#a437db"><g class="undefined-text-0" data-fill-palette-color="primary" id="text-0"><path d="M29.1 0L16.75-14.65 11.2-8.95 11.2 0 4.7 0 4.7-35 11.2-35 11.2-17.05 28.5-35 35.8-35 21.1-19.35 36.7 0 29.1 0ZM67.35 0L63.85-8.1 46.35-8.1 42.9 0 36.2 0 51.95-35 58.35-35 74.15 0 67.35 0ZM48.55-13.2L61.7-13.2 55.1-28.5 48.55-13.2ZM93.65 0.5Q86.4 0.5 82.35-3.58 78.3-7.65 78.3-15.25L78.3-15.25 78.3-35 84.8-35 84.8-15.5Q84.8-5.2 93.7-5.2L93.7-5.2Q102.55-5.2 102.55-15.5L102.55-15.5 102.55-35 108.95-35 108.95-15.25Q108.95-7.65 104.92-3.58 100.9 0.5 93.65 0.5L93.65 0.5ZM128.89 0.5Q124.84 0.5 121.07-0.65 117.29-1.8 115.09-3.7L115.09-3.7 117.34-8.75Q119.49-7.05 122.62-5.98 125.74-4.9 128.89-4.9L128.89-4.9Q132.79-4.9 134.72-6.15 136.64-7.4 136.64-9.45L136.64-9.45Q136.64-10.95 135.57-11.93 134.49-12.9 132.84-13.45 131.19-14 128.34-14.7L128.34-14.7Q124.34-15.65 121.87-16.6 119.39-17.55 117.62-19.58 115.84-21.6 115.84-25.05L115.84-25.05Q115.84-27.95 117.42-30.33 118.99-32.7 122.17-34.1 125.34-35.5 129.94-35.5L129.94-35.5Q133.14-35.5 136.24-34.7 139.34-33.9 141.59-32.4L141.59-32.4 139.54-27.35Q137.24-28.7 134.74-29.4 132.24-30.1 129.89-30.1L129.89-30.1Q126.04-30.1 124.17-28.8 122.29-27.5 122.29-25.35L122.29-25.35Q122.29-23.85 123.37-22.9 124.44-21.95 126.09-21.4 127.74-20.85 130.59-20.15L130.59-20.15Q134.49-19.25 136.99-18.28 139.49-17.3 141.27-15.3 143.04-13.3 143.04-9.9L143.04-9.9Q143.04-7 141.47-4.65 139.89-2.3 136.69-0.9 133.49 0.5 128.89 0.5L128.89 0.5ZM174.09-35L180.59-35 180.59 0 174.09 0 174.09-15 155.99-15 155.99 0 149.49 0 149.49-35 155.99-35 155.99-20.55 174.09-20.55 174.09-35ZM189.99 0L189.99-35 196.49-35 196.49 0 189.99 0ZM230.34 0L217.99-14.65 212.44-8.95 212.44 0 205.94 0 205.94-35 212.44-35 212.44-17.05 229.74-35 237.04-35 222.34-19.35 237.94 0 230.34 0Z" fill="#ffffff" data-fill-palette-color="primary"></path><path d="M253.49 0.5Q249.44 0.5 245.67-0.65 241.89-1.8 239.69-3.7L239.69-3.7 241.94-8.75Q244.09-7.05 247.22-5.98 250.34-4.9 253.49-4.9L253.49-4.9Q257.39-4.9 259.32-6.15 261.24-7.4 261.24-9.45L261.24-9.45Q261.24-10.95 260.17-11.93 259.09-12.9 257.44-13.45 255.79-14 252.94-14.7L252.94-14.7Q248.94-15.65 246.47-16.6 243.99-17.55 242.22-19.58 240.44-21.6 240.44-25.05L240.44-25.05Q240.44-27.95 242.02-30.33 243.59-32.7 246.77-34.1 249.94-35.5 254.54-35.5L254.54-35.5Q257.74-35.5 260.84-34.7 263.94-33.9 266.19-32.4L266.19-32.4 264.14-27.35Q261.84-28.7 259.34-29.4 256.84-30.1 254.49-30.1L254.49-30.1Q250.64-30.1 248.77-28.8 246.89-27.5 246.89-25.35L246.89-25.35Q246.89-23.85 247.97-22.9 249.04-21.95 250.69-21.4 252.34-20.85 255.19-20.15L255.19-20.15Q259.09-19.25 261.59-18.28 264.09-17.3 265.87-15.3 267.64-13.3 267.64-9.9L267.64-9.9Q267.64-7 266.07-4.65 264.49-2.3 261.29-0.9 258.09 0.5 253.49 0.5L253.49 0.5ZM298.69-35L305.19-35 305.19 0 298.69 0 298.69-15 280.59-15 280.59 0 274.09 0 274.09-35 280.59-35 280.59-20.55 298.69-20.55 298.69-35ZM340.79 0L337.29-8.1 319.79-8.1 316.34 0 309.64 0 325.39-35 331.79-35 347.59 0 340.79 0ZM321.99-13.2L335.14-13.2 328.54-28.5 321.99-13.2ZM381.93 0L374.93 0 367.78-10.25Q367.33-10.2 366.43-10.2L366.43-10.2 358.53-10.2 358.53 0 352.03 0 352.03-35 366.43-35Q370.98-35 374.36-33.5 377.73-32 379.53-29.2 381.33-26.4 381.33-22.55L381.33-22.55Q381.33-18.6 379.41-15.75 377.48-12.9 373.88-11.5L373.88-11.5 381.93 0ZM374.78-22.55Q374.78-25.9 372.58-27.7 370.38-29.5 366.13-29.5L366.13-29.5 358.53-29.5 358.53-15.55 366.13-15.55Q370.38-15.55 372.58-17.38 374.78-19.2 374.78-22.55L374.78-22.55ZM426.88 0L420.73 0 420.68-23.2 409.18-4 406.28-4 394.78-22.9 394.78 0 388.58 0 388.58-35 393.93-35 407.83-11.8 421.48-35 426.83-35 426.88 0ZM462.53 0L459.03-8.1 441.53-8.1 438.08 0 431.38 0 447.13-35 453.53-35 469.33 0 462.53 0ZM443.73-13.2L456.88-13.2 450.28-28.5 443.73-13.2Z" fill="#ffffff" data-fill-palette-color="secondary"></path></g></svg></g></svg></g></svg></g></svg></g></svg></g></svg></g><g mask="url(#cec6964a-8bd4-4d82-b01e-e2f0a6a837ef)"><g transform="matrix(3.6005878555707245, 0, 0, 3.6005878555707245, 44.735029873396854, 1)"><svg xmlns="http://www.w3.org/2000/svg" xmlns:xlink="http://www.w3.org/1999/xlink" version="1.1" x="0" y="0" viewBox="2 12.800003051757812 84.99999237060547 68.09999084472656" enable-background="new 0 0 90 90" xml:space="preserve" height="68.09999084472656" width="84.99999237060547" class="icon-none" data-fill-palette-color="accent" id="none"><g fill="#b19dd0" data-fill-palette-color="accent"><path d="M29 28.9c0.2 0.2 0.4 0.3 0.6 0.3 0.2 0 0.5-0.1 0.6-0.3l3.8-3.8-3.8-3.8c-0.4-0.4-0.9-0.4-1.3 0-0.4 0.4-0.4 0.9 0 1.3l2.5 2.5L29 27.6C28.7 28 28.7 28.6 29 28.9z" fill="#ffffff" data-fill-palette-color="accent"></path><path d="M35.3 28.1c-0.5 0-0.9 0.4-0.9 0.9 0 0.5 0.4 0.9 0.9 0.9h4.8c0.5 0 0.9-0.4 0.9-0.9 0-0.5-0.4-0.9-0.9-0.9H35.3z" fill="#ffffff" data-fill-palette-color="accent"></path><path d="M74.2 31.6c0.8-0.2 1.8-0.3 2.7-0.3 1.4 0 2.6 0.3 3.1 0.7 1.4 1.1 2 2.1 2.1 2.1l0.3 0.5 0.2-0.1V55c0 1.5-0.5 2.9-1.4 4l0.6 2.4c1.8-1.6 2.9-3.8 2.9-6.4v-21l2.3-0.6-0.8-1c-0.1-0.1-0.6-0.9-1.5-1.9v-9.2c0-4.7-3.8-8.5-8.5-8.5H29.8c-4.7 0-8.5 3.8-8.5 8.5V35c-0.8 0.2-1.5 0.5-2.3 0.8l-2.2-3.5L12.1 35l1.9 3.6c-1.4 1.1-2.6 2.3-3.7 3.7l-3.6-1.9L4 45.1l3.5 2.2c-0.7 1.7-1.1 3.4-1.4 5.1L2 52.5V58l4.1 0.1c0.2 1.7 0.7 3.5 1.4 5.1L4 65.4l2.7 4.7 3.6-1.9c1.1 1.4 2.3 2.6 3.7 3.7l-1.9 3.6 4.7 2.7 2.2-3.5c1.7 0.7 3.4 1.1 5.1 1.4l0.1 4.1h5.5l0.1-4.1c1.7-0.2 3.5-0.7 5.1-1.4l2.2 3.5 4.7-2.7L40 71.9c1.4-1.1 2.6-2.3 3.7-3.7l3.6 1.9 2.7-4.7-3-1.9h22.9l-0.5-2.1H29.8c-3.5 0-6.4-2.9-6.4-6.4V21.3c0-3.5 2.9-6.4 6.4-6.4h46.4c3.5 0 6.4 2.9 6.4 6.4v6.9c-0.6-0.6-1.2-1.2-1.8-1.6C78.7 25 75.6 24 72.7 24c-1 0-1.9 0.1-2.7 0.3l-11.5 2.9L56.7 26l-5.6 1.4L54.3 40l5.6-1.4 1-1.9 3.9-1 11 45.2 9.1-2.3L72.8 33.3 74.2 31.6zM11.5 59.1c-1-3.9-0.5-8.1 1.7-11.8 1.9-3.3 4.8-5.6 8.1-6.9v10.4c-0.2 0.3-0.4 0.6-0.6 0.9-0.7 1.2-1 2.4-1 3.7 0 1.5-0.8 2.9-2.1 3.7l-2.7 1.6C13.6 61.3 11.9 60.6 11.5 59.1zM38.2 63.5c0.8 0.9 0.9 2.3-0.1 3.2-5 4.8-12.8 6-19.1 2.3-1.1-0.7-2.2-1.4-3.1-2.3-1.1-1.1-0.9-2.9 0.4-3.7l2.7-1.6c1.3-0.8 2.9-0.7 4.2 0 0 0 0 0 0 0 0.7 0.4 1.5 0.7 2.2 0.8 1.2 0.7 2.7 1.1 4.2 1.1H38.2zM59.7 35.2l-1 1.9-3.2 0.8-2.3-9.2 3.2-0.8 1.8 1.2L70.4 26c0.7-0.2 1.5-0.3 2.3-0.3 2.5 0 5.3 0.9 7 2.3 1.5 1.2 3.3 3.3 4.3 4.5l-0.9 0.2c-0.4-0.5-1.1-1.3-2.1-2.1-1.1-0.9-2.9-1.1-4.2-1.1-1.2 0-2.4 0.1-3.4 0.4L73.2 30l-1.7 2.2L59.7 35.2z" fill="#ffffff" data-fill-palette-color="accent"></path><rect x="56.6" y="31.6" transform="matrix(-0.2466 -0.9691 0.9691 -0.2466 42.9199 97.4263)" width="5.5" height="0.9" fill="#ffffff" data-fill-palette-color="accent"></rect></g></svg></g></g></svg></g><defs><mask id="cec6964a-8bd4-4d82-b01e-e2f0a6a837ef"><rect width="640" height="400" fill="white"></rect><rect width="348.05760000000004" height="36.344274166345905" fill="black" y="105.42786291682704" x="23.731199999999973" id="transform-me"></rect></mask></defs></svg><rect width="395.52" height="247.2" fill="none" stroke="none" visibility="hidden"></rect></g></svg></g></svg>